<?xml version="1.0" encoding="UTF-8" standalone="no"?>
<svg
   viewBox="0 0 556.67094 214.10607"
   version="1.1"
   id="svg90"
   sodipodi:docname="british-acupuncture-council-logo.svg"
   inkscape:version="1.1.2 (0a00cf5339, 2022-02-04)"
   width="556.67096"
   height="214.10608"
   xmlns:inkscape="http://www.inkscape.org/namespaces/inkscape"
   xmlns:sodipodi="http://sodipodi.sourceforge.net/DTD/sodipodi-0.dtd"
   xmlns="http://www.w3.org/2000/svg"
   xmlns:svg="http://www.w3.org/2000/svg">
  <defs
     id="defs94" />
  <sodipodi:namedview
     id="namedview92"
     pagecolor="#ffffff"
     bordercolor="#666666"
     borderopacity="1.0"
     inkscape:pageshadow="2"
     inkscape:pageopacity="0.0"
     inkscape:pagecheckerboard="0"
     showgrid="false"
     inkscape:zoom="0.66911877"
     inkscape:cx="144.21954"
     inkscape:cy="66.505383"
     inkscape:window-width="1024"
     inkscape:window-height="712"
     inkscape:window-x="0"
     inkscape:window-y="312"
     inkscape:window-maximized="1"
     inkscape:current-layer="svg90"
     fit-margin-top="0"
     fit-margin-left="0"
     fit-margin-right="0"
     fit-margin-bottom="0" />
  <g
     id="g387"
     transform="translate(-0.02904026,2.0946713e-4)">
    <path
       d="m 177.8,28.5 c 12.9,18.3 16.9,38.5 11.9,60.3 -5.8,25.8 -24.1,43.4 -49.1,47.7 -14.9,2.5 -29.4,0.3 -43.6,-4.4 -8.2,-2.7 -16.7,-3.8 -25,-0.8 -15.5,5.5 -23.8,17.1 -26.1,32.9 -2.3,15.8 3,32.5 17.6,41.1 a 106.8,106.8 0 0 0 126.2,-31.7 110.4,110.4 0 0 0 23.2,-65.8 v -1.1 A 106.8,106.8 0 0 0 176.8,27 a 0.6,0.6 0 0 0 0.1,0.4 z"
       fill="#2c7cb5"
       id="path2" />
    <path
       d="m 7.2,146 a 104.3,104.3 0 0 0 28.4,41.3 c 0.1,-0.7 0.2,-0.8 0.1,-0.9 a 5.3,5.3 0 0 0 -0.6,-1 C 21.6,166.2 18,145.2 23.9,122.6 30.3,97.9 49,81.1 73.9,77.4 c 14.6,-2.2 28.7,0.1 42.5,4.7 a 40.1,40.1 0 0 0 20.3,1.7 c 16.7,-3.1 29.4,-18.4 30.6,-36.7 1.1,-16.3 -4.4,-29.2 -15.6,-36.8 A 105.6,105.6 0 0 0 106,0 107.7,107.7 0 0 0 75.2,4.5 C 16.2,23.3 -15,87.2 7.2,146 Z"
       fill="#2c7cb5"
       id="path4" />
  </g>
  <g
     id="g383"
     transform="translate(-0.02904026,2.0946713e-4)">
    <path
       d="m 283.1,60.5 a 9,9 0 0 0 3.2,-7.4 8.7,8.7 0 0 0 -1.9,-5.9 9.1,9.1 0 0 0 -4.8,-2.9 8.8,8.8 0 0 0 4.1,-2.9 8.7,8.7 0 0 0 1.7,-5.4 8.6,8.6 0 0 0 -3.1,-7.1 c -2.1,-1.7 -5,-2.5 -8.7,-2.5 H 259 v 36.5 h 15.2 c 3.8,0.2 6.8,-0.7 8.9,-2.4 z m -20,-30.4 h 9.8 c 2.8,0 4.9,0.5 6.3,1.6 a 5.4,5.4 0 0 1 2.1,4.7 5.7,5.7 0 0 1 -2.1,4.8 c -1.4,1.1 -3.5,1.6 -6.2,1.6 h -9.8 V 30.1 Z m 0,29.5 V 46.3 h 10.7 c 2.8,0 4.9,0.6 6.3,1.7 a 6,6 0 0 1 2.1,5 6.1,6.1 0 0 1 -2,5 c -1.4,1.1 -3.5,1.6 -6.3,1.6 z"
       fill="#232323"
       id="path6" />
    <path
       d="m 293.4,44.5 v 18.6 h 4.2 V 48.4 a 9.9,9.9 0 0 1 0.7,-3.8 7,7 0 0 1 2.4,-3 7.1,7.1 0 0 1 4.3,-1.2 7.7,7.7 0 0 1 2.7,0.4 V 37 l -1.1,-0.2 h -1.3 a 9.4,9.4 0 0 0 -5.4,1.7 8,8 0 0 0 -2.7,3.7 l -0.4,-4.8 H 293 a 21.9,21.9 0 0 1 0.3,3.6 c 0.1,1.1 0.1,2.3 0.1,3.5 z"
       fill="#232323"
       id="path8" />
    <rect
       x="311.60001"
       y="26.4"
       width="5.0999999"
       height="4.6999998"
       fill="#232323"
       id="rect10" />
    <rect
       x="312"
       y="37.299999"
       width="4.1999998"
       height="25.799999"
       fill="#232323"
       id="rect12" />
    <path
       d="m 325.6,55.3 c 0,2.7 0.7,4.8 2.1,6.2 a 7.7,7.7 0 0 0 5.7,2.1 h 1.9 l 1.7,-0.4 v -3.6 l -1.4,0.4 h -1.4 a 5.6,5.6 0 0 1 -2.3,-0.4 3.1,3.1 0 0 1 -1.6,-1.6 7,7 0 0 1 -0.6,-3.2 V 40.6 h 7.4 v -3.3 h -7.4 v -8.1 l -4.2,1.5 v 6.6 h -5 v 3.3 h 5 v 14.7 z"
       fill="#232323"
       id="path14" />
    <rect
       x="342.10001"
       y="37.299999"
       width="4.1999998"
       height="25.799999"
       fill="#232323"
       id="rect16" />
    <rect
       x="341.70001"
       y="26.4"
       width="5.0999999"
       height="4.6999998"
       fill="#232323"
       id="rect18" />
    <path
       d="m 367.6,59.1 a 7.8,7.8 0 0 1 -4.4,1 13.6,13.6 0 0 1 -9,-3 l -1.4,3.1 c 2.5,2.2 6,3.3 10.3,3.3 a 12.5,12.5 0 0 0 7.4,-2 6.2,6.2 0 0 0 2.7,-5.3 6.4,6.4 0 0 0 -1.7,-4.5 c -1.1,-1.2 -2.9,-2 -5.4,-2.5 l -4.4,-1.1 a 6.9,6.9 0 0 1 -3.1,-1.4 3.5,3.5 0 0 1 -0.9,-2.5 3.4,3.4 0 0 1 1.5,-2.9 7.4,7.4 0 0 1 4.3,-1.1 10.9,10.9 0 0 1 4,0.7 15.4,15.4 0 0 1 3.8,2.3 l 1.4,-3 a 10.5,10.5 0 0 0 -4.1,-2.5 14.4,14.4 0 0 0 -5.1,-0.9 11.8,11.8 0 0 0 -5.2,1 7.1,7.1 0 0 0 -3.4,2.7 6.8,6.8 0 0 0 -1.2,4 6,6 0 0 0 1.8,4.4 9.9,9.9 0 0 0 5,2.6 l 4.4,1 a 8.3,8.3 0 0 1 3.4,1.5 3,3 0 0 1 1,2.4 3.8,3.8 0 0 1 -1.7,2.7 z"
       fill="#232323"
       id="path20" />
    <path
       d="m 383.9,48.3 a 7.7,7.7 0 0 1 2.2,-5.9 7.5,7.5 0 0 1 5.7,-2.2 5.5,5.5 0 0 1 4.5,1.7 c 1,1.1 1.4,2.9 1.4,5.3 v 16 h 4.2 V 46.9 q 0,-10.2 -9.3,-10.2 a 10.3,10.3 0 0 0 -5.8,1.6 8.9,8.9 0 0 0 -2.9,3.2 V 25.4 h -4.2 v 37.7 h 4.2 z"
       fill="#232323"
       id="path22" />
    <path
       d="m 271.4,89.9 -16.1,36.5 h 4.4 l 4,-9.4 h 19.1 l 4,9.4 h 4.3 L 275,89.9 Z m -6.1,23.7 8.1,-18.8 8,18.8 z"
       fill="#232323"
       id="path24" />
    <path
       d="m 307.3,103.5 a 9.9,9.9 0 0 1 3.8,0.7 14.4,14.4 0 0 1 3.7,2.2 l 1.4,-3.1 a 10.9,10.9 0 0 0 -4,-2.5 14.4,14.4 0 0 0 -5.1,-0.9 13.1,13.1 0 0 0 -6.7,1.7 11.7,11.7 0 0 0 -4.4,4.7 15.8,15.8 0 0 0 -1.5,7.1 15.4,15.4 0 0 0 1.5,7 10.6,10.6 0 0 0 4.3,4.6 12.4,12.4 0 0 0 6.6,1.6 15.4,15.4 0 0 0 5.2,-0.9 11.7,11.7 0 0 0 4.1,-2.4 l -1.4,-3.1 a 16.3,16.3 0 0 1 -3.7,2.2 9.7,9.7 0 0 1 -3.7,0.7 7.9,7.9 0 0 1 -6.2,-2.6 c -1.5,-1.7 -2.3,-4.1 -2.3,-7.3 a 11.1,11.1 0 0 1 2.3,-7.4 8.6,8.6 0 0 1 6.1,-2.3 z"
       fill="#232323"
       id="path26" />
    <path
       d="m 330.6,126.8 a 9.9,9.9 0 0 0 5.6,-1.6 7.9,7.9 0 0 0 2.8,-3.2 v 4.4 h 4.1 v -25.8 h -4.2 v 14.6 a 8.2,8.2 0 0 1 -2.1,5.9 7.1,7.1 0 0 1 -5.5,2.2 5.7,5.7 0 0 1 -4.4,-1.6 c -1,-1.1 -1.4,-2.8 -1.4,-5.1 v -15.9 h -4.2 v 16 c 0,3.4 0.8,5.9 2.3,7.6 1.5,1.7 3.9,2.5 7,2.5 z"
       fill="#232323"
       id="path28" />
    <path
       d="m 369.9,101.7 a 10.8,10.8 0 0 0 -6,-1.7 10.3,10.3 0 0 0 -5.9,1.7 9.7,9.7 0 0 0 -3,3.9 l -0.4,-5 h -3.9 a 21.9,21.9 0 0 1 0.3,3.6 c 0.1,1.2 0.1,2.4 0.1,3.6 v 29.6 h 4.2 v -15.9 a 8.4,8.4 0 0 0 2.8,3.4 9.6,9.6 0 0 0 5.9,1.7 10.8,10.8 0 0 0 6,-1.6 10.6,10.6 0 0 0 4,-4.6 17.6,17.6 0 0 0 0,-14.2 12.6,12.6 0 0 0 -4.1,-4.5 z m -0.9,19.1 a 7.9,7.9 0 0 1 -11.7,0 c -1.4,-1.7 -2.1,-4.2 -2.1,-7.4 0,-3.2 0.7,-5.6 2.1,-7.3 a 7.9,7.9 0 0 1 11.7,0 c 1.4,1.8 2.1,4.2 2.1,7.4 0,3.2 -0.7,5.6 -2.1,7.3 z"
       fill="#232323"
       id="path30" />
    <path
       d="m 399.3,115.2 a 8.2,8.2 0 0 1 -2.1,5.9 7.1,7.1 0 0 1 -5.5,2.2 5.7,5.7 0 0 1 -4.4,-1.6 c -1,-1.1 -1.4,-2.8 -1.4,-5.1 v -15.9 h -4.2 v 16 c 0,3.4 0.8,5.9 2.3,7.6 a 9,9 0 0 0 6.9,2.6 9.9,9.9 0 0 0 5.6,-1.6 7.9,7.9 0 0 0 2.8,-3.2 v 4.4 h 4.1 v -25.8 h -4.2 v 14.5 z"
       fill="#232323"
       id="path32" />
    <path
       d="m 424.3,100 a 10.3,10.3 0 0 0 -5.8,1.6 8.1,8.1 0 0 0 -3.1,3.7 l -0.4,-4.7 h -4 a 21.9,21.9 0 0 1 0.3,3.6 c 0.1,1.2 0.1,2.4 0.1,3.6 v 18.6 h 4.2 v -14.8 a 7.7,7.7 0 0 1 2.2,-5.9 7.5,7.5 0 0 1 5.7,-2.2 5.5,5.5 0 0 1 4.5,1.7 c 1,1.1 1.4,2.9 1.4,5.3 v 16 h 4.2 v -16.2 c 0,-6.9 -3.1,-10.3 -9.3,-10.3 z"
       fill="#232323"
       id="path34" />
    <path
       d="m 452.7,103.5 a 9.9,9.9 0 0 1 3.8,0.7 14.4,14.4 0 0 1 3.7,2.2 l 1.4,-3.1 a 10.9,10.9 0 0 0 -4,-2.5 14.4,14.4 0 0 0 -5.1,-0.9 13.1,13.1 0 0 0 -6.7,1.7 11.7,11.7 0 0 0 -4.4,4.7 15.8,15.8 0 0 0 -1.5,7.1 15.4,15.4 0 0 0 1.5,7 10.6,10.6 0 0 0 4.3,4.6 12.4,12.4 0 0 0 6.6,1.6 15.4,15.4 0 0 0 5.2,-0.9 11.7,11.7 0 0 0 4.1,-2.4 l -1.4,-3.1 a 16.3,16.3 0 0 1 -3.7,2.2 9.7,9.7 0 0 1 -3.7,0.7 7.9,7.9 0 0 1 -6.2,-2.6 c -1.5,-1.7 -2.3,-4.1 -2.3,-7.3 a 11.1,11.1 0 0 1 2.3,-7.4 8.5,8.5 0 0 1 6.1,-2.3 z"
       fill="#232323"
       id="path36" />
    <path
       d="m 474.9,92.5 -4.2,1.5 v 6.6 h -5 v 3.3 h 5 v 14.7 c 0,2.7 0.7,4.8 2.1,6.2 a 7.7,7.7 0 0 0 5.7,2.1 h 1.9 l 1.7,-0.4 V 123 l -1.4,0.4 h -1.4 a 5.6,5.6 0 0 1 -2.3,-0.4 3.1,3.1 0 0 1 -1.6,-1.6 7,7 0 0 1 -0.6,-3.2 v -14.1 h 7.4 v -3.3 h -7.4 v -8.3 z"
       fill="#232323"
       id="path38" />
    <path
       d="m 504.8,115.2 a 8.2,8.2 0 0 1 -2.1,5.9 7.1,7.1 0 0 1 -5.5,2.2 5.7,5.7 0 0 1 -4.4,-1.6 c -1,-1.1 -1.4,-2.8 -1.4,-5.1 v -15.9 h -4.2 v 16 c 0,3.4 0.8,5.9 2.3,7.6 a 9,9 0 0 0 6.9,2.6 9.9,9.9 0 0 0 5.6,-1.6 7.9,7.9 0 0 0 2.8,-3.2 v 4.4 h 4.1 v -25.8 h -4.2 v 14.5 z"
       fill="#232323"
       id="path40" />
    <path
       d="m 528.9,100 a 9.4,9.4 0 0 0 -5.4,1.7 8,8 0 0 0 -2.7,3.7 l -0.4,-4.8 h -3.9 a 21.9,21.9 0 0 1 0.3,3.6 c 0.1,1.2 0.1,2.4 0.1,3.6 v 18.6 h 4.2 v -14.7 a 9.9,9.9 0 0 1 0.7,-3.8 7,7 0 0 1 2.4,-3 7.1,7.1 0 0 1 4.3,-1.2 7.7,7.7 0 0 1 2.7,0.4 v -3.8 l -1.1,-0.2 z"
       fill="#232323"
       id="path42" />
    <path
       d="m 556.6,112.7 a 15.9,15.9 0 0 0 -1.3,-6.8 9.4,9.4 0 0 0 -3.8,-4.3 11,11 0 0 0 -5.9,-1.5 11.9,11.9 0 0 0 -6.3,1.7 11.5,11.5 0 0 0 -4.3,4.7 15.7,15.7 0 0 0 -1.5,7 14.7,14.7 0 0 0 1.6,7.2 10.5,10.5 0 0 0 4.5,4.6 13.5,13.5 0 0 0 6.9,1.6 17,17 0 0 0 5.4,-0.9 11.9,11.9 0 0 0 4.3,-2.5 l -1.4,-3 a 14.8,14.8 0 0 1 -4,2.3 12.5,12.5 0 0 1 -4.3,0.7 c -2.9,0 -5.1,-0.9 -6.5,-2.6 -1.4,-1.7 -2.2,-4.1 -2.2,-7.4 h 18.9 v -0.8 z m -16.8,-6.8 a 7,7 0 0 1 5.9,-2.6 6.6,6.6 0 0 1 5.5,2.4 9,9 0 0 1 1.7,5 h -15 a 9.4,9.4 0 0 1 1.9,-4.8 z"
       fill="#232323"
       id="path44" />
    <path
       d="m 274.6,156.5 a 14.7,14.7 0 0 1 5.6,1 17.5,17.5 0 0 1 5.2,3.2 l 1.6,-3.2 a 15.7,15.7 0 0 0 -5.5,-3.5 19.2,19.2 0 0 0 -6.9,-1.2 17.2,17.2 0 0 0 -9,2.3 14.4,14.4 0 0 0 -5.8,6.4 24.6,24.6 0 0 0 0,19.9 15.3,15.3 0 0 0 5.8,6.5 17.2,17.2 0 0 0 9,2.3 19.2,19.2 0 0 0 6.9,-1.2 15.2,15.2 0 0 0 5.5,-3.5 l -1.6,-3.2 a 16.3,16.3 0 0 1 -5.2,3.2 16.9,16.9 0 0 1 -5.6,1 q -6,0 -9.3,-3.9 c -2.2,-2.6 -3.3,-6.3 -3.3,-11.2 0,-4.9 1.1,-8.5 3.3,-11.1 2.2,-2.6 5.3,-3.8 9.3,-3.8 z"
       fill="#232323"
       id="path46" />
    <path
       d="m 310.1,165 a 13.6,13.6 0 0 0 -12.8,0 11.6,11.6 0 0 0 -4.3,4.7 17.6,17.6 0 0 0 0,14.2 10.6,10.6 0 0 0 4.3,4.6 13.6,13.6 0 0 0 12.8,0 11.9,11.9 0 0 0 4.3,-4.6 17.6,17.6 0 0 0 0,-14.2 10.9,10.9 0 0 0 -4.3,-4.7 z m -0.5,19.2 a 8.2,8.2 0 0 1 -11.8,0 c -1.4,-1.7 -2.1,-4.2 -2.1,-7.4 0,-3.2 0.7,-5.6 2.1,-7.3 a 7.3,7.3 0 0 1 5.9,-2.6 7.1,7.1 0 0 1 5.8,2.6 c 1.4,1.7 2.1,4.2 2.1,7.3 0,3.1 -0.6,5.7 -2,7.4 z"
       fill="#232323"
       id="path48" />
    <path
       d="m 339.8,178.6 a 8.2,8.2 0 0 1 -2.1,5.9 7.1,7.1 0 0 1 -5.5,2.2 5.7,5.7 0 0 1 -4.4,-1.6 c -1,-1.1 -1.4,-2.8 -1.4,-5.1 v -16 h -4.2 v 16 c 0,3.4 0.8,5.9 2.3,7.6 a 9,9 0 0 0 6.9,2.6 9.9,9.9 0 0 0 5.6,-1.6 7.9,7.9 0 0 0 2.8,-3.2 v 4.4 h 4.1 V 164 h -4.2 v 14.6 z"
       fill="#232323"
       id="path50" />
    <path
       d="m 364.8,163.4 a 10.3,10.3 0 0 0 -5.8,1.6 8.1,8.1 0 0 0 -3.1,3.7 l -0.4,-4.7 h -3.9 a 21.9,21.9 0 0 1 0.3,3.6 c 0.1,1.2 0.1,2.4 0.1,3.6 v 18.6 h 4.2 V 175 a 7.7,7.7 0 0 1 2.2,-5.9 7.5,7.5 0 0 1 5.7,-2.2 5.5,5.5 0 0 1 4.5,1.7 c 1,1.1 1.4,2.9 1.4,5.3 v 16 h 4.2 v -16.2 c -0.1,-6.9 -3.2,-10.3 -9.4,-10.3 z"
       fill="#232323"
       id="path52" />
    <path
       d="m 393.2,166.9 a 9.9,9.9 0 0 1 3.8,0.7 14.4,14.4 0 0 1 3.7,2.2 l 1.4,-3.1 a 10.9,10.9 0 0 0 -4,-2.5 14.4,14.4 0 0 0 -5.1,-0.9 13.1,13.1 0 0 0 -6.7,1.7 11.7,11.7 0 0 0 -4.4,4.7 15.8,15.8 0 0 0 -1.5,7.1 15.4,15.4 0 0 0 1.5,7 10.6,10.6 0 0 0 4.3,4.6 12.4,12.4 0 0 0 6.6,1.6 15.4,15.4 0 0 0 5.2,-0.9 11.7,11.7 0 0 0 4.1,-2.4 l -1.4,-3.1 a 16.3,16.3 0 0 1 -3.7,2.2 9.7,9.7 0 0 1 -3.7,0.7 7.9,7.9 0 0 1 -6.2,-2.6 c -1.5,-1.7 -2.3,-4.1 -2.3,-7.3 a 11.1,11.1 0 0 1 2.3,-7.4 8.1,8.1 0 0 1 6.1,-2.3 z"
       fill="#232323"
       id="path54" />
    <rect
       x="407.29999"
       y="164"
       width="4.1999998"
       height="25.799999"
       fill="#232323"
       id="rect56" />
    <rect
       x="406.89999"
       y="153.10001"
       width="5.0999999"
       height="4.6999998"
       fill="#232323"
       id="rect58" />
    <rect
       x="419.60001"
       y="152.10001"
       width="4.1999998"
       height="37.700001"
       fill="#232323"
       id="rect60" />
  </g>
</svg>
